<?xml version="1.0" encoding="UTF-8" standalone="no"?>
<!-- Created with Inkscape (http://www.inkscape.org/) -->

<svg
   xmlns:dc="http://purl.org/dc/elements/1.1/"
   xmlns:cc="http://creativecommons.org/ns#"
   xmlns:rdf="http://www.w3.org/1999/02/22-rdf-syntax-ns#"
   xmlns:svg="http://www.w3.org/2000/svg"
   xmlns="http://www.w3.org/2000/svg"
   xmlns:sodipodi="http://sodipodi.sourceforge.net/DTD/sodipodi-0.dtd"
   xmlns:inkscape="http://www.inkscape.org/namespaces/inkscape"
   id="svg2"
   version="1.1"
   inkscape:version="0.48.3.1 r9886"
   width="1381.8884"
   height="1951.5631"
   xml:space="preserve"
   sodipodi:docname="LogoDUSTISMO_Final_008.ai"><metadata
     id="metadata8"><rdf:RDF><cc:Work
         rdf:about=""><dc:format>image/svg+xml</dc:format><dc:type
           rdf:resource="http://purl.org/dc/dcmitype/StillImage" /><dc:title></dc:title></cc:Work></rdf:RDF></metadata><defs
     id="defs6" /><sodipodi:namedview
     pagecolor="#ffffff"
     bordercolor="#666666"
     borderopacity="1"
     objecttolerance="10"
     gridtolerance="10"
     guidetolerance="10"
     inkscape:pageopacity="0"
     inkscape:pageshadow="2"
     inkscape:window-width="1294"
     inkscape:window-height="696"
     id="namedview4"
     showgrid="false"
     inkscape:zoom="0.68407606"
     inkscape:cx="506.64045"
     inkscape:cy="1461.4727"
     inkscape:window-x="337"
     inkscape:window-y="238"
     inkscape:window-maximized="0"
     inkscape:current-layer="g10" /><g
     id="g10"
     inkscape:groupmode="layer"
     inkscape:label="LogoDUSTISMO_Final_008"
     transform="matrix(1.25,0,0,-1.25,0,1951.5631)"><g
       id="g12"
       transform="scale(1,-1)"><path
         d="m 128.875,-1195.3232 c 0,0 0,201.99996 0,201.99996"
         style="fill:none;stroke:#bec2b5;stroke-opacity:1;stroke-width:1;stroke-linecap:butt;stroke-linejoin:miter;stroke-miterlimit:4;stroke-dasharray:none"
         id="path14" /><path
         d="m 114.125,-993.32324 c 0,0 0,-201.99996 0,-201.99996"
         style="fill:none;stroke:#bec2b5;stroke-opacity:1;stroke-width:1;stroke-linecap:butt;stroke-linejoin:miter;stroke-miterlimit:4;stroke-dasharray:none"
         id="path16" /><path
         d="m 56.75,-1122.5737 c 0,0 686.70801,0 686.70801,0"
         style="fill:none;stroke:#bec2b5;stroke-opacity:1;stroke-width:1;stroke-linecap:butt;stroke-linejoin:miter;stroke-miterlimit:4;stroke-dasharray:none"
         id="path18" /><path
         d="m 743.45801,-1062.6152 c 0,0 -686.70801,0 -686.70801,0"
         style="fill:none;stroke:#bec2b5;stroke-opacity:1;stroke-width:1;stroke-linecap:butt;stroke-linejoin:miter;stroke-miterlimit:4;stroke-dasharray:none"
         id="path20" /><path
         d="m 436.54199,-1182.6563 c 0,0 0,202.00005 0,202.00005"
         style="fill:none;stroke:#bec2b5;stroke-opacity:1;stroke-width:1;stroke-linecap:butt;stroke-linejoin:miter;stroke-miterlimit:4;stroke-dasharray:none"
         id="path22" /><path
         d="m 421.79199,-980.65625 c 0,0 0,-202.00005 0,-202.00005"
         style="fill:none;stroke:#bec2b5;stroke-opacity:1;stroke-width:1;stroke-linecap:butt;stroke-linejoin:miter;stroke-miterlimit:4;stroke-dasharray:none"
         id="path24" /><path
         d="m 252.5415,-1195.9902 c 0,0 0,201.99997 0,201.99997"
         style="fill:none;stroke:#bec2b5;stroke-opacity:1;stroke-width:1;stroke-linecap:butt;stroke-linejoin:miter;stroke-miterlimit:4;stroke-dasharray:none"
         id="path26" /><path
         d="m 237.7915,-993.99023 c 0,0 0,-201.99997 0,-201.99997"
         style="fill:none;stroke:#bec2b5;stroke-opacity:1;stroke-width:1;stroke-linecap:butt;stroke-linejoin:miter;stroke-miterlimit:4;stroke-dasharray:none"
         id="path28" /><path
         d="m 579.54199,-1185.9902 c 0,0 0,201.99997 0,201.99997"
         style="fill:none;stroke:#bec2b5;stroke-opacity:1;stroke-width:1;stroke-linecap:butt;stroke-linejoin:miter;stroke-miterlimit:4;stroke-dasharray:none"
         id="path30" /><path
         d="m 564.79199,-983.99023 c 0,0 0,-201.99997 0,-201.99997"
         style="fill:none;stroke:#bec2b5;stroke-opacity:1;stroke-width:1;stroke-linecap:butt;stroke-linejoin:miter;stroke-miterlimit:4;stroke-dasharray:none"
         id="path32" /><path
         d="m 175.01074,-1034.25 c 0,0 472,0 472,0"
         style="fill:none;stroke:#cccccc;stroke-opacity:1;stroke-width:1;stroke-linecap:butt;stroke-linejoin:miter;stroke-miterlimit:4;stroke-dasharray:none"
         id="path34" /><path
         d="m 175.51074,-1020.75 c 0,0 472,0 472,0"
         style="fill:none;stroke:#cccccc;stroke-opacity:1;stroke-width:1;stroke-linecap:butt;stroke-linejoin:miter;stroke-miterlimit:4;stroke-dasharray:none"
         id="path36" /><path
         d="m 176.01074,-1040.75 c 0,0 472,0 472,0"
         style="fill:none;stroke:#cccccc;stroke-opacity:1;stroke-width:1;stroke-linecap:butt;stroke-linejoin:miter;stroke-miterlimit:4;stroke-dasharray:none"
         id="path38" /><path
         d="m 151.625,-1160.6152 c 0,22.0918 -17.9082,40 -40,40 -22.0918,0 -40,-17.9082 -40,-40 0,-22.0918 17.9082,-40 40,-40 22.0918,0 40,17.9082 40,40 z"
         style="fill:none;stroke:#bec2b5;stroke-opacity:1;stroke-width:1;stroke-linecap:butt;stroke-linejoin:miter;stroke-miterlimit:4;stroke-dasharray:none"
         id="path40" /><path
         d="m 112.0835,-1094.7822 c 0,19.1679 15.53955,34.708 34.70849,34.708 19.16846,0 34.70801,-15.5401 34.70801,-34.708 0,-19.168 -15.53955,-34.708 -34.70801,-34.708 -19.16894,0 -34.70849,15.54 -34.70849,34.708 z"
         style="fill:none;stroke:#bec2b5;stroke-opacity:1;stroke-width:1;stroke-linecap:butt;stroke-linejoin:miter;stroke-miterlimit:4;stroke-dasharray:none"
         id="path42" /><path
         d="m 0.5,-948.99023 c 0,-62.68357 50.81543,-113.49997 113.5,-113.49997 62.68457,0 113.5,50.8164 113.5,113.49997 0,62.68359 -50.81543,113.5 -113.5,113.5 -62.68457,0 -113.5,-50.81641 -113.5,-113.5 z"
         style="fill:none;stroke:#bec2b5;stroke-opacity:1;stroke-width:1;stroke-linecap:butt;stroke-linejoin:miter;stroke-miterlimit:4;stroke-dasharray:none"
         id="path44" /><path
         d="m 114.08398,-1075.8223 c 0,5.5235 -4.47753,10 -10,10 -5.52246,0 -10,-4.4765 -10,-10 0,-5.5234 4.47754,-10 10,-10 5.52247,0 10,4.4766 10,10 z"
         style="fill:none;stroke:#bec2b5;stroke-opacity:1;stroke-width:1;stroke-linecap:butt;stroke-linejoin:miter;stroke-miterlimit:4;stroke-dasharray:none"
         id="path46" /><path
         d="m 114.16602,-1107.4902 c 0,-5.5235 -4.47754,-10 -10,-10 -5.52247,0 -10,4.4765 -10,10 0,5.5234 4.47753,10 10,10 5.52246,0 10,-4.4766 10,-10 z"
         style="fill:none;stroke:#bec2b5;stroke-opacity:1;stroke-width:1;stroke-linecap:butt;stroke-linejoin:miter;stroke-miterlimit:4;stroke-dasharray:none"
         id="path48" /><path
         d="m 128.83301,-1077.4932 c 0,6.5811 5.33545,11.917 11.91699,11.917 6.58154,0 11.91699,-5.3359 11.91699,-11.917 0,-6.581 -5.33545,-11.917 -11.91699,-11.917 -6.58154,0 -11.91699,5.336 -11.91699,11.917 z"
         style="fill:none;stroke:#bec2b5;stroke-opacity:1;stroke-width:1;stroke-linecap:butt;stroke-linejoin:miter;stroke-miterlimit:4;stroke-dasharray:none"
         id="path50" /><path
         d="m 131.83447,-1112.8242 c 0,-6.8106 5.52149,-12.3321 12.33301,-12.3321 6.81152,0 12.33301,5.5215 12.33301,12.3321 0,6.8125 -5.52149,12.334 -12.33301,12.334 -6.81152,0 -12.33301,-5.5215 -12.33301,-12.334 z"
         style="fill:none;stroke:#bec2b5;stroke-opacity:1;stroke-width:1;stroke-linecap:butt;stroke-linejoin:miter;stroke-miterlimit:4;stroke-dasharray:none"
         id="path52" /><path
         d="m 163.16797,-1096.8262 c 0,19.1485 -15.37207,34.6699 -34.33399,34.6699 -18.96093,0 -34.333,-15.5214 -34.333,-34.6699 0,-19.1445 15.37207,-34.666 34.333,-34.666 18.96192,0 34.33399,15.5215 34.33399,34.666 z"
         style="fill:none;stroke:#bec2b5;stroke-opacity:1;stroke-width:1;stroke-linecap:butt;stroke-linejoin:miter;stroke-miterlimit:4;stroke-dasharray:none"
         id="path54" /><path
         d="m 104.8335,-1063.9902 c 0,1.1054 -0.89551,2 -2,2 -1.1045,0 -2,-0.8946 -2,-2 0,-1.1055 0.8955,-2 2,-2 1.10449,0 2,0.8945 2,2 z"
         style="fill:none;stroke:#bec2b5;stroke-opacity:1;stroke-width:1;stroke-linecap:butt;stroke-linejoin:miter;stroke-miterlimit:4;stroke-dasharray:none"
         id="path56" /><path
         d="m 106.0835,-1119.4063 c 0,1.1055 -0.89551,2 -2,2 -1.1045,0 -2,-0.8945 -2,-2 0,-1.1054 0.8955,-2 2,-2 1.10449,0 2,0.8946 2,2 z"
         style="fill:none;stroke:#bec2b5;stroke-opacity:1;stroke-width:1;stroke-linecap:butt;stroke-linejoin:miter;stroke-miterlimit:4;stroke-dasharray:none"
         id="path58" /><path
         d="m 174.25,-1161.9482 c 0,22.0917 17.9082,40 40,40 22.0918,0 40,-17.9083 40,-40 0,-22.0918 -17.9082,-40 -40,-40 -22.0918,0 -40,17.9082 -40,40 z"
         style="fill:none;stroke:#bec2b5;stroke-opacity:1;stroke-width:1;stroke-linecap:butt;stroke-linejoin:miter;stroke-miterlimit:4;stroke-dasharray:none"
         id="path60" /><path
         d="m 196.12598,-1109.6597 c 0,10.0332 -8.1333,18.1675 -18.167,18.1675 -10.0332,0 -18.1665,-8.1343 -18.1665,-18.1675 0,-10.0332 8.1333,-18.166 18.1665,-18.166 10.0337,0 18.167,8.1328 18.167,18.166 z"
         style="fill:none;stroke:#bec2b5;stroke-opacity:1;stroke-width:1;stroke-linecap:butt;stroke-linejoin:miter;stroke-miterlimit:4;stroke-dasharray:none"
         id="path62" /><path
         d="m 219.7915,-1120.7393 c 0,1.1055 0.89551,2 2,2 1.1045,0 2,-0.8945 2,-2 0,-1.1054 -0.8955,-2 -2,-2 -1.10449,0 -2,0.8946 -2,2 z"
         style="fill:none;stroke:#bec2b5;stroke-opacity:1;stroke-width:1;stroke-linecap:butt;stroke-linejoin:miter;stroke-miterlimit:4;stroke-dasharray:none"
         id="path64" /><path
         d="m 179.9585,-1128.4058 c 0,1.1055 0.8955,2 2,2 1.10449,0 2,-0.8945 2,-2 0,-1.1054 -0.89551,-2 -2,-2 -1.1045,0 -2,0.8946 -2,2 z"
         style="fill:none;stroke:#bec2b5;stroke-opacity:1;stroke-width:1;stroke-linecap:butt;stroke-linejoin:miter;stroke-miterlimit:4;stroke-dasharray:none"
         id="path66" /><path
         d="m 191.17773,-1088.5806 c 0,15.9136 12.35108,28.8179 27.58545,28.8179 15.23291,0 27.58448,-12.9043 27.58448,-28.8179 0,-15.917 -12.35157,-28.8188 -27.58448,-28.8188 -15.23437,0 -27.58545,12.9018 -27.58545,28.8188 z"
         style="fill:none;stroke:#bec2b5;stroke-opacity:1;stroke-width:1;stroke-linecap:butt;stroke-linejoin:miter;stroke-miterlimit:4;stroke-dasharray:none"
         id="path68" /><path
         d="m 212.42773,-1078.25 c 0,6.9033 5.5962,12.5 12.49952,12.5 6.90429,0 12.50048,-5.5967 12.50048,-12.5 0,-6.9038 -5.59619,-12.5 -12.50048,-12.5 -6.90332,0 -12.49952,5.5962 -12.49952,12.5 z"
         style="fill:none;stroke:#bec2b5;stroke-opacity:1;stroke-width:1;stroke-linecap:butt;stroke-linejoin:miter;stroke-miterlimit:4;stroke-dasharray:none"
         id="path70" /><path
         d="m 272.20898,-1108.7378 c 0,5.5234 -4.47753,10 -10,10 -5.52246,0 -10,-4.4766 -10,-10 0,-5.5234 4.47754,-10 10,-10 5.52247,0 10,4.4766 10,10 z"
         style="fill:none;stroke:#bec2b5;stroke-opacity:1;stroke-width:1;stroke-linecap:butt;stroke-linejoin:miter;stroke-miterlimit:4;stroke-dasharray:none"
         id="path72" /><path
         d="m 361.5835,-949.40527 c 0,-62.68363 -50.81543,-113.50003 -113.5,-113.50003 -62.68457,0 -113.5,50.8164 -113.5,113.50003 0,62.68359 50.81543,113.5 113.5,113.5 62.68457,0 113.5,-50.81641 113.5,-113.5 z"
         style="fill:none;stroke:#bec2b5;stroke-opacity:1;stroke-width:1;stroke-linecap:butt;stroke-linejoin:miter;stroke-miterlimit:4;stroke-dasharray:none"
         id="path74" /><path
         d="m 252.16602,-1076.0713 c 0,5.5234 4.47753,10 10,10 5.52246,0 10,-4.4766 10,-10 0,-5.5239 -4.47754,-10.0005 -10,-10.0005 -5.52247,0 -10,4.4766 -10,10.0005 z"
         style="fill:none;stroke:#bec2b5;stroke-opacity:1;stroke-width:1;stroke-linecap:butt;stroke-linejoin:miter;stroke-miterlimit:4;stroke-dasharray:none"
         id="path76" /><path
         d="m 261.4165,-1064.2393 c 0,1.1055 0.89551,2 2,2 1.1045,0 2,-0.8945 2,-2 0,-1.1054 -0.8955,-2 -2,-2 -1.10449,0 -2,0.8946 -2,2 z"
         style="fill:none;stroke:#bec2b5;stroke-opacity:1;stroke-width:1;stroke-linecap:butt;stroke-linejoin:miter;stroke-miterlimit:4;stroke-dasharray:none"
         id="path78" /><path
         d="m 260.2915,-1120.9893 c 0,1.1055 0.89551,2 2,2 1.1045,0 2,-0.8945 2,-2 0,-1.1054 -0.8955,-2 -2,-2 -1.10449,0 -2,0.8946 -2,2 z"
         style="fill:none;stroke:#bec2b5;stroke-opacity:1;stroke-width:1;stroke-linecap:butt;stroke-linejoin:miter;stroke-miterlimit:4;stroke-dasharray:none"
         id="path80" /><path
         d="m 217.45898,-1108.8628 c 0,5.5234 4.47754,10 10,10 5.52247,0 10,-4.4766 10,-10 0,-5.5234 -4.47753,-10 -10,-10 -5.52246,0 -10,4.4766 -10,10 z"
         style="fill:none;stroke:#bec2b5;stroke-opacity:1;stroke-width:1;stroke-linecap:butt;stroke-linejoin:miter;stroke-miterlimit:4;stroke-dasharray:none"
         id="path82" /><path
         d="m 229.37646,-1120.8643 c 0,1.1055 -0.8955,2 -2,2 -1.10449,0 -2,-0.8945 -2,-2 0,-1.1054 0.89551,-2 2,-2 1.1045,0 2,0.8946 2,2 z"
         style="fill:none;stroke:#bec2b5;stroke-opacity:1;stroke-width:1;stroke-linecap:butt;stroke-linejoin:miter;stroke-miterlimit:4;stroke-dasharray:none"
         id="path84" /><path
         d="m 285.33936,-1109.957 c -0.56397,4.1074 2.30761,7.895 6.41552,8.4589 4.10742,0.5645 7.89453,-2.3081 8.45899,-6.4155 0.56445,-4.1084 -2.30811,-7.8945 -6.41455,-8.4585 -4.1084,-0.5659 -7.89453,2.3067 -8.45996,6.4151 z"
         style="fill:none;stroke:#bec2b5;stroke-opacity:1;stroke-width:1;stroke-linecap:butt;stroke-linejoin:miter;stroke-miterlimit:4;stroke-dasharray:none"
         id="path86" /><path
         d="m 331.70361,-1078.8594 c -1.57763,11.4727 -12.12402,19.502 -23.55761,17.9307 -11.43457,-1.5713 -19.42432,-12.1475 -17.84766,-23.6216 1.57715,-11.4746 12.12402,-19.5024 23.55762,-17.9312 11.43408,1.5713 19.42431,12.146 17.84765,23.6221 z"
         style="fill:none;stroke:#bec2b5;stroke-opacity:1;stroke-width:1;stroke-linecap:butt;stroke-linejoin:miter;stroke-miterlimit:4;stroke-dasharray:none"
         id="path88" /><path
         d="m 320.75488,-1074.6406 c 0.64942,-4.7315 -2.66015,-9.0957 -7.39209,-9.7456 -4.73242,-0.6509 -9.09472,2.6587 -9.74658,7.3891 -0.64941,4.7334 2.65918,9.0957 7.39209,9.7481 4.73242,0.6504 9.09522,-2.6592 9.74658,-7.3916 z"
         style="fill:none;stroke:#bec2b5;stroke-opacity:1;stroke-width:1;stroke-linecap:butt;stroke-linejoin:miter;stroke-miterlimit:4;stroke-dasharray:none"
         id="path90" /><path
         d="m 272.43213,-1070.5127 c 0,1.0576 -0.85693,1.915 -1.91406,1.915 -1.05713,0 -1.91407,-0.8574 -1.91407,-1.915 0,-1.0576 0.85694,-1.9131 1.91407,-1.9131 1.05713,0 1.91406,0.8555 1.91406,1.9131 z"
         style="fill:none;stroke:#bec2b5;stroke-opacity:1;stroke-width:1;stroke-linecap:butt;stroke-linejoin:miter;stroke-miterlimit:4;stroke-dasharray:none"
         id="path92" /><path
         d="m 339.76074,-1138.8335 c 0,9.5269 -7.72314,17.25 -17.25,17.25 -9.52685,0 -17.25,-7.7231 -17.25,-17.25 0,-9.5269 7.72315,-17.25 17.25,-17.25 9.52686,0 17.25,7.7231 17.25,17.25 z"
         style="fill:none;stroke:#bec2b5;stroke-opacity:1;stroke-width:1;stroke-linecap:butt;stroke-linejoin:miter;stroke-miterlimit:4;stroke-dasharray:none"
         id="path94" /><path
         d="m 330.4165,-1122.3228 c 0,1.1055 0.89551,2 2,2 1.1045,0 2,-0.8945 2,-2 0,-1.1054 -0.8955,-2 -2,-2 -1.10449,0 -2,0.8946 -2,2 z"
         style="fill:none;stroke:#bec2b5;stroke-opacity:1;stroke-width:1;stroke-linecap:butt;stroke-linejoin:miter;stroke-miterlimit:4;stroke-dasharray:none"
         id="path96" /><path
         d="m 315.83301,-1108.1563 c 0,1.1055 0.89551,2 2,2 1.10449,0 2,-0.8945 2,-2 0,-1.1054 -0.89551,-2 -2,-2 -1.10449,0 -2,0.8946 -2,2 z"
         style="fill:none;stroke:#bec2b5;stroke-opacity:1;stroke-width:1;stroke-linecap:butt;stroke-linejoin:miter;stroke-miterlimit:4;stroke-dasharray:none"
         id="path98" /><path
         d="m 316.09424,-1109.5 c 0,-4.0039 -3.2461,-7.25 -7.25,-7.25 -4.00391,0 -7.25,3.2461 -7.25,7.25 0,4.0039 3.24609,7.25 7.25,7.25 4.0039,0 7.25,-3.2461 7.25,-7.25 z"
         style="fill:none;stroke:#bec2b5;stroke-opacity:1;stroke-width:1;stroke-linecap:butt;stroke-linejoin:miter;stroke-miterlimit:4;stroke-dasharray:none"
         id="path100" /><path
         d="m 280.95801,-1078.4063 c 0,1.1055 0.89551,2 2,2 1.10449,0 2,-0.8945 2,-2 0,-1.1054 -0.89551,-2 -2,-2 -1.10449,0 -2,0.8946 -2,2 z"
         style="fill:none;stroke:#bec2b5;stroke-opacity:1;stroke-width:1;stroke-linecap:butt;stroke-linejoin:miter;stroke-miterlimit:4;stroke-dasharray:none"
         id="path102" /><path
         d="m 336.0835,-1107.5728 c 0,1.1055 0.8955,2 2,2 1.10449,0 2,-0.8945 2,-2 0,-1.1054 -0.89551,-2 -2,-2 -1.1045,0 -2,0.8946 -2,2 z"
         style="fill:none;stroke:#bec2b5;stroke-opacity:1;stroke-width:1;stroke-linecap:butt;stroke-linejoin:miter;stroke-miterlimit:4;stroke-dasharray:none"
         id="path104" /><path
         d="m 336.17725,-1096.9585 c 0,-8.1694 6.62255,-14.792 14.79199,-14.792 8.16894,0 14.7915,6.6226 14.7915,14.792 0,8.1689 -6.62256,14.792 -14.7915,14.792 -8.16944,0 -14.79199,-6.6231 -14.79199,-14.792 z"
         style="fill:none;stroke:#bec2b5;stroke-opacity:1;stroke-width:1;stroke-linecap:butt;stroke-linejoin:miter;stroke-miterlimit:4;stroke-dasharray:none"
         id="path106" /><path
         d="m 369.42773,-1076.334 c 0,6.0293 4.8877,10.918 10.917,10.918 6.03027,0 10.91797,-4.8887 10.91797,-10.918 0,-6.0293 -4.8877,-10.917 -10.91797,-10.917 -6.0293,0 -10.917,4.8877 -10.917,10.917 z"
         style="fill:none;stroke:#bec2b5;stroke-opacity:1;stroke-width:1;stroke-linecap:butt;stroke-linejoin:miter;stroke-miterlimit:4;stroke-dasharray:none"
         id="path108" /><path
         d="m 347.84473,-1087.9136 c 0,15.9136 12.35107,28.8179 27.58593,28.8179 15.23243,0 27.58399,-12.9043 27.58399,-28.8179 0,-15.917 -12.35156,-28.8188 -27.58399,-28.8188 -15.23486,0 -27.58593,12.9018 -27.58593,28.8188 z"
         style="fill:none;stroke:#bec2b5;stroke-opacity:1;stroke-width:1;stroke-linecap:butt;stroke-linejoin:miter;stroke-miterlimit:4;stroke-dasharray:none"
         id="path110" /><path
         d="m 407.34277,-1140.084 c 0,16.5689 -13.43164,30 -30,30 -16.56836,0 -29.99951,-13.4311 -29.99951,-30 0,-16.5683 13.43115,-29.9995 29.99951,-29.9995 16.56836,0 30,13.4312 30,29.9995 z"
         style="fill:none;stroke:#bec2b5;stroke-opacity:1;stroke-width:1;stroke-linecap:butt;stroke-linejoin:miter;stroke-miterlimit:4;stroke-dasharray:none"
         id="path112" /><path
         d="m 399.91602,-1126.4058 c 0,1.1055 0.89648,2 2,2 1.10546,0 2,-0.8945 2,-2 0,-1.1054 -0.89454,-2 -2,-2 -1.10352,0 -2,0.8946 -2,2 z"
         style="fill:none;stroke:#bec2b5;stroke-opacity:1;stroke-width:1;stroke-linecap:butt;stroke-linejoin:miter;stroke-miterlimit:4;stroke-dasharray:none"
         id="path114" /><path
         d="m 417.01074,-1156.666 c 0,18.5478 -15.03613,33.5835 -33.58301,33.5835 -18.54834,0 -33.58398,-15.0357 -33.58398,-33.5835 0,-18.5479 15.03564,-33.5835 33.58398,-33.5835 18.54688,0 33.58301,15.0356 33.58301,33.5835 z"
         style="fill:none;stroke:#bec2b5;stroke-opacity:1;stroke-width:1;stroke-linecap:butt;stroke-linejoin:miter;stroke-miterlimit:4;stroke-dasharray:none"
         id="path116" /><path
         d="m 413.70996,-1120.8643 c 0,1.1055 -0.89453,2 -2,2 -1.10351,0 -2,-0.8945 -2,-2 0,-1.1054 0.89649,-2 2,-2 1.10547,0 2,0.8946 2,2 z"
         style="fill:none;stroke:#bec2b5;stroke-opacity:1;stroke-width:1;stroke-linecap:butt;stroke-linejoin:miter;stroke-miterlimit:4;stroke-dasharray:none"
         id="path118" /><path
         d="m 401.79297,-1108.8633 c 0,5.5235 4.47754,10 10,10 5.52246,0 10,-4.4765 10,-10 0,-5.5234 -4.47754,-10 -10,-10 -5.52246,0 -10,4.4766 -10,10 z"
         style="fill:none;stroke:#bec2b5;stroke-opacity:1;stroke-width:1;stroke-linecap:butt;stroke-linejoin:miter;stroke-miterlimit:4;stroke-dasharray:none"
         id="path120" /><path
         d="m 444.62598,-1120.9893 c 0,1.1055 0.89453,2 2,2 1.10351,0 2,-0.8945 2,-2 0,-1.1054 -0.89649,-2 -2,-2 -1.10547,0 -2,0.8946 -2,2 z"
         style="fill:none;stroke:#bec2b5;stroke-opacity:1;stroke-width:1;stroke-linecap:butt;stroke-linejoin:miter;stroke-miterlimit:4;stroke-dasharray:none"
         id="path122" /><path
         d="m 445.75098,-1064.2393 c 0,1.1055 0.89453,2 2,2 1.10351,0 2,-0.8945 2,-2 0,-1.1054 -0.89649,-2 -2,-2 -1.10547,0 -2,0.8946 -2,2 z"
         style="fill:none;stroke:#bec2b5;stroke-opacity:1;stroke-width:1;stroke-linecap:butt;stroke-linejoin:miter;stroke-miterlimit:4;stroke-dasharray:none"
         id="path124" /><path
         d="m 394.92871,-1077.334 c 0,7.4102 6.00684,13.417 13.41504,13.417 7.41113,0 13.41797,-6.0068 13.41797,-13.417 0,-7.4101 -6.00684,-13.416 -13.41797,-13.416 -7.4082,0 -13.41504,6.0059 -13.41504,13.416 z"
         style="fill:none;stroke:#bec2b5;stroke-opacity:1;stroke-width:1;stroke-linecap:butt;stroke-linejoin:miter;stroke-miterlimit:4;stroke-dasharray:none"
         id="path126" /><path
         d="m 545.91699,-949.40527 c 0,-62.68363 -50.81445,-113.50003 -113.5,-113.50003 -62.68359,0 -113.5,50.8164 -113.5,113.50003 0,62.68359 50.81641,113.5 113.5,113.5 62.68555,0 113.5,-50.81641 113.5,-113.5 z"
         style="fill:none;stroke:#bec2b5;stroke-opacity:1;stroke-width:1;stroke-linecap:butt;stroke-linejoin:miter;stroke-miterlimit:4;stroke-dasharray:none"
         id="path128" /><path
         d="m 648.01074,-1341.4175 c 0,121.1348 -98.19824,219.3335 -219.33203,219.3335 -121.13525,0 -219.33398,-98.1987 -219.33398,-219.3335 0,-121.1343 98.19873,-219.333 219.33398,-219.333 121.13379,0 219.33203,98.1987 219.33203,219.333 z"
         style="fill:none;stroke:#bec2b5;stroke-opacity:1;stroke-width:1;stroke-linecap:butt;stroke-linejoin:miter;stroke-miterlimit:4;stroke-dasharray:none"
         id="path130" /><path
         d="m 456.54297,-1108.7383 c 0,5.5235 -4.47754,10 -10,10 -5.52246,0 -10,-4.4765 -10,-10 0,-5.5234 4.47754,-10 10,-10 5.52246,0 10,4.4766 10,10 z"
         style="fill:none;stroke:#bec2b5;stroke-opacity:1;stroke-width:1;stroke-linecap:butt;stroke-linejoin:miter;stroke-miterlimit:4;stroke-dasharray:none"
         id="path132" /><path
         d="m 405.75098,-1062.0723 c 0,1.1055 0.89453,2 2,2 1.10351,0 2,-0.8945 2,-2 0,-1.1054 -0.89649,-2 -2,-2 -1.10547,0 -2,0.8946 -2,2 z"
         style="fill:none;stroke:#bec2b5;stroke-opacity:1;stroke-width:1;stroke-linecap:butt;stroke-linejoin:miter;stroke-miterlimit:4;stroke-dasharray:none"
         id="path134" /><path
         d="m 436.5,-1076.0713 c 0,5.5234 4.47754,10 10,10 5.52246,0 10,-4.4766 10,-10 0,-5.5244 -4.47754,-10.001 -10,-10.001 -5.52246,0 -10,4.4766 -10,10.001 z"
         style="fill:none;stroke:#bec2b5;stroke-opacity:1;stroke-width:1;stroke-linecap:butt;stroke-linejoin:miter;stroke-miterlimit:4;stroke-dasharray:none"
         id="path136" /><path
         d="m 469.83984,-1109.791 c -0.56445,4.1074 2.30664,7.895 6.41504,8.459 4.10742,0.5644 7.89453,-2.3081 8.45899,-6.4156 0.56445,-4.1084 -2.30762,-7.8945 -6.41504,-8.4585 -4.10742,-0.5659 -7.89453,2.3067 -8.45899,6.4151 z"
         style="fill:none;stroke:#bec2b5;stroke-opacity:1;stroke-width:1;stroke-linecap:butt;stroke-linejoin:miter;stroke-miterlimit:4;stroke-dasharray:none"
         id="path138" /><path
         d="m 516.20313,-1078.6934 c -1.57715,11.4727 -12.12305,19.502 -23.55665,17.9307 -11.43554,-1.5713 -19.4248,-12.1475 -17.84765,-23.6221 1.57617,-11.4746 12.12305,-19.5019 23.55664,-17.9306 11.43457,1.5713 19.4248,12.1455 17.84766,23.622 z"
         style="fill:none;stroke:#bec2b5;stroke-opacity:1;stroke-width:1;stroke-linecap:butt;stroke-linejoin:miter;stroke-miterlimit:4;stroke-dasharray:none"
         id="path140" /><path
         d="m 505.25488,-1074.4746 c 0.64942,-4.7315 -2.66015,-9.0957 -7.3916,-9.7461 -4.73242,-0.6504 -9.0957,2.6592 -9.74707,7.3896 -0.64941,4.7334 2.65918,9.0957 7.3916,9.7481 4.73242,0.6504 9.09571,-2.6592 9.74707,-7.3916 z"
         style="fill:none;stroke:#bec2b5;stroke-opacity:1;stroke-width:1;stroke-linecap:butt;stroke-linejoin:miter;stroke-miterlimit:4;stroke-dasharray:none"
         id="path142" /><path
         d="m 456.93164,-1070.3467 c 0,1.0576 -0.85644,1.9151 -1.91406,1.9151 -1.05664,0 -1.91406,-0.8575 -1.91406,-1.9151 0,-1.0576 0.85742,-1.9131 1.91406,-1.9131 1.05762,0 1.91406,0.8555 1.91406,1.9131 z"
         style="fill:none;stroke:#bec2b5;stroke-opacity:1;stroke-width:1;stroke-linecap:butt;stroke-linejoin:miter;stroke-miterlimit:4;stroke-dasharray:none"
         id="path144" /><path
         d="m 524.26074,-1138.6675 c 0,9.5269 -7.72363,17.25 -17.25,17.25 -9.52636,0 -17.25,-7.7231 -17.25,-17.25 0,-9.5268 7.72364,-17.25 17.25,-17.25 9.52637,0 17.25,7.7232 17.25,17.25 z"
         style="fill:none;stroke:#bec2b5;stroke-opacity:1;stroke-width:1;stroke-linecap:butt;stroke-linejoin:miter;stroke-miterlimit:4;stroke-dasharray:none"
         id="path146" /><path
         d="m 514.91602,-1122.1567 c 0,1.1054 0.89648,2 2,2 1.10546,0 2,-0.8946 2,-2 0,-1.1055 -0.89454,-2 -2,-2 -1.10352,0 -2,0.8945 -2,2 z"
         style="fill:none;stroke:#bec2b5;stroke-opacity:1;stroke-width:1;stroke-linecap:butt;stroke-linejoin:miter;stroke-miterlimit:4;stroke-dasharray:none"
         id="path148" /><path
         d="m 500.33301,-1107.9902 c 0,1.1054 0.89551,2 2,2 1.10449,0 2,-0.8946 2,-2 0,-1.1055 -0.89551,-2 -2,-2 -1.10449,0 -2,0.8945 -2,2 z"
         style="fill:none;stroke:#bec2b5;stroke-opacity:1;stroke-width:1;stroke-linecap:butt;stroke-linejoin:miter;stroke-miterlimit:4;stroke-dasharray:none"
         id="path150" /><path
         d="m 500.59375,-1109.334 c 0,-4.0039 -3.24609,-7.25 -7.25,-7.25 -4.00391,0 -7.25,3.2461 -7.25,7.25 0,4.0039 3.24609,7.25 7.25,7.25 4.00391,0 7.25,-3.2461 7.25,-7.25 z"
         style="fill:none;stroke:#bec2b5;stroke-opacity:1;stroke-width:1;stroke-linecap:butt;stroke-linejoin:miter;stroke-miterlimit:4;stroke-dasharray:none"
         id="path152" /><path
         d="m 465.45801,-1078.2402 c 0,1.1054 0.89551,2 2,2 1.10449,0 2,-0.8946 2,-2 0,-1.1055 -0.89551,-2 -2,-2 -1.10449,0 -2,0.8945 -2,2 z"
         style="fill:none;stroke:#bec2b5;stroke-opacity:1;stroke-width:1;stroke-linecap:butt;stroke-linejoin:miter;stroke-miterlimit:4;stroke-dasharray:none"
         id="path154" /><path
         d="m 518.37598,-1061.584 c 0,-1.1054 0.89453,-2 2,-2 1.10351,0 2,0.8946 2,2 0,1.1055 -0.89649,2 -2,2 -1.10547,0 -2,-0.8945 -2,-2 z"
         style="fill:none;stroke:#bec2b5;stroke-opacity:1;stroke-width:1;stroke-linecap:butt;stroke-linejoin:miter;stroke-miterlimit:4;stroke-dasharray:none"
         id="path156" /><path
         d="m 524.34473,-1096.4097 c 0,-15.9131 12.35156,-28.8174 27.58593,-28.8174 15.23243,0 27.58399,12.9043 27.58399,28.8174 0,15.9175 -12.35156,28.8199 -27.58399,28.8199 -15.23437,0 -27.58593,-12.9024 -27.58593,-28.8199 z"
         style="fill:none;stroke:#bec2b5;stroke-opacity:1;stroke-width:1;stroke-linecap:butt;stroke-linejoin:miter;stroke-miterlimit:4;stroke-dasharray:none"
         id="path158" /><path
         d="m 546.59473,-1110.0064 c 0,-5.1088 4.14062,-9.25 9.25,-9.25 5.10937,0 9.25,4.1412 9.25,9.25 0,5.1094 -4.14063,9.25 -9.25,9.25 -5.10938,0 -9.25,-4.1406 -9.25,-9.25 z"
         style="fill:none;stroke:#bec2b5;stroke-opacity:1;stroke-width:1;stroke-linecap:butt;stroke-linejoin:miter;stroke-miterlimit:4;stroke-dasharray:none"
         id="path160" /><path
         d="m 545.12598,-1076.127 c 0,-5.5234 4.47754,-9.9995 10,-9.9995 5.52246,0 10,4.4761 10,9.9995 0,5.5235 -4.47754,10 -10,10 -5.52246,0 -10,-4.4765 -10,-10 z"
         style="fill:none;stroke:#bec2b5;stroke-opacity:1;stroke-width:1;stroke-linecap:butt;stroke-linejoin:miter;stroke-miterlimit:4;stroke-dasharray:none"
         id="path162" /><path
         d="m 511.62598,-1073.377 c 0,-5.5234 4.47754,-9.9995 10,-9.9995 5.52246,0 10,4.4761 10,9.9995 0,5.5235 -4.47754,10 -10,10 -5.52246,0 -10,-4.4765 -10,-10 z"
         style="fill:none;stroke:#bec2b5;stroke-opacity:1;stroke-width:1;stroke-linecap:butt;stroke-linejoin:miter;stroke-miterlimit:4;stroke-dasharray:none"
         id="path164" /><path
         d="m 620.40723,-1096.4102 c 0,-15.9121 -12.35157,-28.8164 -27.58594,-28.8164 -15.23242,0 -27.58399,12.9043 -27.58399,28.8164 0,15.918 12.35157,28.8204 27.58399,28.8204 15.23437,0 27.58594,-12.9024 27.58594,-28.8204 z"
         style="fill:none;stroke:#bec2b5;stroke-opacity:1;stroke-width:1;stroke-linecap:butt;stroke-linejoin:miter;stroke-miterlimit:4;stroke-dasharray:none"
         id="path166" /><path
         d="m 598.15723,-1110.0059 c 0,-5.1093 -4.14063,-9.25 -9.25,-9.25 -5.10938,0 -9.25,4.1407 -9.25,9.25 0,5.1094 4.14062,9.25 9.25,9.25 5.10937,0 9.25,-4.1406 9.25,-9.25 z"
         style="fill:none;stroke:#bec2b5;stroke-opacity:1;stroke-width:1;stroke-linecap:butt;stroke-linejoin:miter;stroke-miterlimit:4;stroke-dasharray:none"
         id="path168" /><path
         d="m 519.25195,-1174.9595 c 0,29.063 23.56055,52.6245 52.62403,52.6245 29.06445,0 52.625,-23.5615 52.625,-52.6245 0,-29.0639 -23.56055,-52.625 -52.625,-52.625 -29.06348,0 -52.62403,23.5611 -52.62403,52.625 z"
         style="fill:none;stroke:#bec2b5;stroke-opacity:1;stroke-width:1;stroke-linecap:butt;stroke-linejoin:miter;stroke-miterlimit:4;stroke-dasharray:none"
         id="path170" /><path
         d="m 43.01074,-531.5 c 0,-293.26367 237.73682,-531 531,-531 293.26367,0 530.99996,237.73633 530.99996,531 0,293.26367 -237.73629,531 -530.99996,531 -293.26318,0 -531,-237.73633 -531,-531 z"
         style="fill:none;stroke:#bec2b5;stroke-opacity:1;stroke-width:1;stroke-linecap:butt;stroke-linejoin:miter;stroke-miterlimit:4;stroke-dasharray:none"
         id="path172" /><path
         d="m 599.62598,-1076.127 c 0,-5.5234 -4.47754,-10 -10,-10 -5.52246,0 -10,4.4766 -10,10 0,5.5235 4.47754,10 10,10 5.52246,0 10,-4.4765 10,-10 z"
         style="fill:none;stroke:#bec2b5;stroke-opacity:1;stroke-width:1;stroke-linecap:butt;stroke-linejoin:miter;stroke-miterlimit:4;stroke-dasharray:none"
         id="path174" /><path
         d="m 615.72461,-1076.582 c 0,-9.0669 7.34961,-16.418 16.41699,-16.418 9.06641,0 16.41699,7.3511 16.41699,16.418 0,9.0664 -7.35058,16.416 -16.41699,16.416 -9.06738,0 -16.41699,-7.3496 -16.41699,-16.416 z"
         style="fill:none;stroke:#bec2b5;stroke-opacity:1;stroke-width:1;stroke-linecap:butt;stroke-linejoin:miter;stroke-miterlimit:4;stroke-dasharray:none"
         id="path176" /><path
         d="m 652.38574,-1075.375 c 0,-5.4531 4.42188,-9.875 9.875,-9.875 5.45313,0 9.875,4.4219 9.875,9.875 0,5.4531 -4.42187,9.875 -9.875,9.875 -5.45312,0 -9.875,-4.4219 -9.875,-9.875 z"
         style="fill:none;stroke:#bec2b5;stroke-opacity:1;stroke-width:1;stroke-linecap:butt;stroke-linejoin:miter;stroke-miterlimit:4;stroke-dasharray:none"
         id="path178" /><path
         d="m 652.38574,-1110 c 0,-5.4531 4.42188,-9.875 9.875,-9.875 5.45313,0 9.875,4.4219 9.875,9.875 0,5.4531 -4.42187,9.875 -9.875,9.875 -5.45312,0 -9.875,-4.4219 -9.875,-9.875 z"
         style="fill:none;stroke:#bec2b5;stroke-opacity:1;stroke-width:1;stroke-linecap:butt;stroke-linejoin:miter;stroke-miterlimit:4;stroke-dasharray:none"
         id="path180" /><path
         d="m 677.01074,-1012.416 c 0,18.22557 -14.77441,32.99998 -33,32.99998 -18.22558,0 -33,-14.77441 -33,-32.99998 0,-18.2256 14.77442,-33 33,-33 18.22559,0 33,14.7744 33,33 z"
         style="fill:none;stroke:#bec2b5;stroke-opacity:1;stroke-width:1;stroke-linecap:butt;stroke-linejoin:miter;stroke-miterlimit:4;stroke-dasharray:none"
         id="path182" /><path
         d="m 252.01074,-950.41602 c 0,18.22559 -14.77441,33 -33,33 -18.22558,0 -33,-14.77441 -33,-33 0,-18.22558 14.77442,-33 33,-33 18.22559,0 33,14.77442 33,33 z"
         style="fill:none;stroke:#bec2b5;stroke-opacity:1;stroke-width:1;stroke-linecap:butt;stroke-linejoin:miter;stroke-miterlimit:4;stroke-dasharray:none"
         id="path184" /><path
         d="m 171.01074,-955.41602 c 0,-25.03711 20.29639,-45.33298 45.33301,-45.33298 25.03662,0 45.33301,20.29587 45.33301,45.33298 0,25.03711 -20.29639,45.33301 -45.33301,45.33301 -25.03662,0 -45.33301,-20.2959 -45.33301,-45.33301 z"
         style="fill:none;stroke:#bec2b5;stroke-opacity:1;stroke-width:1;stroke-linecap:butt;stroke-linejoin:miter;stroke-miterlimit:4;stroke-dasharray:none"
         id="path186" /><path
         d="m 601.34473,-1007.749 c 0,-25.0371 20.2959,-45.333 45.33203,-45.333 25.03711,0 45.33398,20.2959 45.33398,45.333 0,25.03709 -20.29687,45.33298 -45.33398,45.33298 -25.03613,0 -45.33203,-20.29589 -45.33203,-45.33298 z"
         style="fill:none;stroke:#bec2b5;stroke-opacity:1;stroke-width:1;stroke-linecap:butt;stroke-linejoin:miter;stroke-miterlimit:4;stroke-dasharray:none"
         id="path188" /><path
         d="m 104.81543,-1121.3169 c -0.30176,-0.1836 -0.37598,-0.2041 -0.75586,-0.2041 -1.10449,0 -2,0.8945 -2,2 0,1.1055 0.89551,2 2,2 0.30859,0 0.22168,-0.043 0.51074,-0.052 4.41602,-0.1254 9.57129,4.4444 9.57129,9.9678 0,0 -0.082,31.6694 -0.082,31.6694 0,5.5235 -4.53809,10.0899 -10.06055,10.0899 -0.38964,0 -0.77148,-0.2578 -1.18945,-0.2578 -1.10449,0 -2,0.8945 -2,2 0,1.1054 0.89551,2 2,2 0.39844,0 0.39063,-0.125 0.75977,-0.1602 3.53173,-0.3301 6.78808,-0.3398 10.40673,-0.3398 6.29346,0 11.31788,0.5371 17.38526,1.1152 2.625,0.25 8.625,1.25 15.40674,1.3008 19.16748,0.1426 34.708,-15.541 34.708,-34.7095 0,-19.1679 -15.53955,-34.708 -34.708,-34.708 -6.09815,0 -11.57129,1.5879 -16.60059,4.2588 -5.58838,2.9678 -11.75635,4.5742 -18.5249,4.5742 -2.42578,0 -4.52051,-0.1308 -6.82715,-0.5449 z"
         style="fill:none;stroke:#464646;stroke-opacity:1;stroke-width:2;stroke-linecap:butt;stroke-linejoin:miter;stroke-miterlimit:4;stroke-dasharray:none"
         id="path190" /><path
         d="m 408.3623,-1064.082 c 7.41016,0 13.375,-5.8653 13.375,-13.2754 0,0 0.0312,-31.6226 0.0312,-31.6226 0,-5.5234 -5.15429,-10.0928 -9.57031,-9.9668 -0.28906,0.01 -0.20312,0.051 -0.51172,0.051 -1.10351,0 -2,-0.8945 -2,-2 0,-1.1055 0.89649,-2.0454 2,-2 3.05078,0.125 10.86524,0.6973 16.21875,0.6973 5.81641,0 16.16797,-0.4737 18.69727,-0.8223 1.0918,-0.1509 2,0.8945 2,2 0,1.1055 -0.89649,2 -2,2 -0.30859,0 -0.22266,-0.043 -0.51172,-0.051 -4.41602,-0.126 -9.57227,4.4434 -9.57227,9.9668 0,0 -0.043,32.9194 -0.043,32.9194 0,5.5235 4.48632,10.0411 10.01171,10.0411 0.38868,0 0.82032,-0.209 1.24024,-0.209 1.10351,0 2,0.8945 2,2 0,1.1054 -0.89844,2.0391 -2,2 -3.02149,-0.1035 -10.61524,-0.6973 -15.33399,-0.666 -8.20703,0.057 -15.88085,0.9707 -23.59375,2.625 -0.42578,0.1582 -0.68359,0.2089 -1.07226,0.2089 -1.10547,0 -2,-0.8945 -2,-2 0,-1.1054 0.89453,-2 2,-2 0.11328,0 0.46289,0.062 0.63476,0.1036 z"
         style="fill:none;stroke:#464646;stroke-opacity:1;stroke-width:2;stroke-linecap:butt;stroke-linejoin:miter;stroke-miterlimit:4;stroke-dasharray:none"
         id="path192" /><path
         d="m 629.94629,-1092.8013 c 0,-17.8462 14.4668,-32.313 32.3125,-32.313 17.8457,0 32.3125,14.4668 32.3125,32.313 0,17.8462 -14.4668,32.313 -32.3125,32.313 -17.8457,0 -32.3125,-14.4668 -32.3125,-32.313 z"
         style="fill:none;stroke:#464646;stroke-opacity:1;stroke-width:2;stroke-linecap:butt;stroke-linejoin:miter;stroke-miterlimit:4;stroke-dasharray:none"
         id="path194" /><path
         d="m 134.23633,-1120.6148 c 2.35351,-2.9443 5.76367,-4.6562 9.82324,-4.6562 3.31934,0 6.33203,1.3125 8.54883,3.4453 6.4375,6.1934 10.53515,15.2012 10.53515,24.8848 0,12.0571 -6.09472,22.6772 -15.34375,28.8901 -1.96679,1.4922 -4.41894,2.3614 -7.07373,2.3614 -6.58154,0 -11.875,-4.543 -11.875,-11.1231 0,0 -0.0435,-27.2944 -0.0435,-27.2944 0,-6.4121 1.71484,-11.8614 5.42871,-16.5079 z"
         style="fill:none;stroke:#464646;stroke-opacity:1;stroke-width:2;stroke-linecap:butt;stroke-linejoin:miter;stroke-miterlimit:4;stroke-dasharray:none"
         id="path196" /><path
         d="m 194.67725,-1102.6665 c -1.23731,3.3589 -3.35694,8.6103 -3.35694,13.8052 0,15.914 12.35108,28.8183 27.58545,28.8183 1.9043,0 3.76319,-0.2011 5.5586,-0.584 7.71337,-1.6503 15.38867,-2.3925 23.59521,-2.3925 2.44873,0 11.0415,0.1757 14.57275,0.5058 0.36963,0.035 0.36133,0.1602 0.76026,0.1602 1.10449,0 2,-0.8946 2,-2 0,-1.1055 -0.89551,-2 -2,-2 -0.41846,0 -0.80029,0.2578 -1.18945,0.2578 -5.52247,0 -10.06104,-4.5664 -10.06104,-10.0899 0,0 0.043,-32.9189 0.043,-32.9189 0,-5.5234 5.15527,-10.0933 9.57178,-9.9678 0.28906,0.01 0.20214,0.052 0.51074,0.052 1.10449,0 2,-0.8945 2,-2 0,-1.1055 -0.89551,-2 -2,-2 -0.37988,0 -0.4541,0.021 -0.75635,0.2041 0,0 -11.73633,0.6172 -17.94092,0.6172 -5.35302,0 -15.46142,-0.4922 -15.46142,-0.4922 -0.30225,-0.1836 -0.37647,-0.2041 -0.75635,-0.2041 -1.10449,0 -2,0.8945 -2,2 0,1.1055 0.89551,2 2,2 0.30859,0 0.22168,-0.043 0.51074,-0.052 4.41651,-0.1255 9.57178,4.4444 9.57178,9.9678 0,0 -0.0732,30.7412 -0.0732,30.7412 0,6.9024 -5.5542,12.459 -12.4585,12.459 -5.78076,0 -9.98144,-4.0605 -12.1084,-9.1523 -1.4331,-3.4317 -3.22461,-12.6236 -3.22461,-19.4332 0,-6.5122 0.29785,-13.0766 2.95264,-18.6547 1.7124,-3.5982 5.55957,-6.1036 8.73389,-5.8863 0.28857,0.02 0.20214,0.052 0.51074,0.052 1.10449,0 2,-0.8945 2,-2 0,-1.1055 -0.89551,-2 -2,-2 -0.37988,0 -0.4082,0.1416 -0.75635,0.2041 -2.30664,0.4141 -4.40088,0.5449 -6.82666,0.5449 -6.76904,0 -12.93652,-1.6064 -18.5249,-4.5742 -4.21143,-2.2368 -8.23291,-3.4307 -13.17285,-3.8521 0,0 -0.55225,0.011 -0.55225,0.011 -1.10449,0 -2,0.8945 -2,2 0,1.1055 0.89551,2 2,2 4.05908,0 6.85889,1.6572 9.45801,4.3872 3.10254,3.2588 4.87256,7.5059 4.70947,12.3589 -0.0498,1.4829 -0.5498,4.7329 -1.4248,7.1079 z"
         style="fill:none;stroke:#464646;stroke-opacity:1;stroke-width:2;stroke-linecap:butt;stroke-linejoin:miter;stroke-miterlimit:4;stroke-dasharray:none"
         id="path198" /><path
         d="m 545.0498,-1075.1133 c -0.61328,-3.2031 -2.22851,-10.1865 -2.22851,-15.8242 0,-7.915 1.33984,-15.5059 4.12109,-22.4263 1.42188,-3.5385 4.67969,-6.1738 8.71094,-6.1738 5.10938,0 9.45898,3.939 9.45898,9.0478 0,0 0.0176,34.8296 0,35.064 -0.35937,5.1973 -4.72265,9.1856 -10.00976,9.1856 -5.18164,0 -8.99024,-3.3106 -10.05274,-8.8731 z"
         style="fill:none;stroke:#464646;stroke-opacity:1;stroke-width:2;stroke-linecap:butt;stroke-linejoin:miter;stroke-miterlimit:4;stroke-dasharray:none"
         id="path200" /><path
         d="m 599.73926,-1074.834 c 0.61133,-3.2031 2.22851,-10.1846 2.22851,-15.8227 0,-7.9151 -1.34179,-15.5059 -4.12109,-22.4263 -1.42188,-3.5381 -4.68164,-6.1738 -8.71094,-6.1738 -5.10937,0 -9.45898,3.9389 -9.45898,9.0478 0,0 -0.0176,34.8281 0,35.0625 0.35937,5.1992 4.72265,9.1856 10.00976,9.1856 5.18164,0 8.99024,-3.3106 10.05274,-8.8731 z"
         style="fill:none;stroke:#464646;stroke-opacity:1;stroke-width:2;stroke-linecap:butt;stroke-linejoin:miter;stroke-miterlimit:4;stroke-dasharray:none"
         id="path202" /><path
         d="m 662.2373,-1119.8648 c -4.125,0 -7.5664,2.4727 -9.04492,6.0645 -2.68359,6.523 -4.33008,13.6235 -4.33008,21.123 0,7.2735 1.44532,14.2105 4.06641,20.5367 1.55469,3.75 5.01563,6.5273 9.30859,6.5273 4.29102,0 7.83399,-2.7715 9.38868,-6.5215 2.62109,-6.3261 4.0664,-13.2632 4.0664,-20.5366 0,-7.4995 -1.64648,-14.6001 -4.33008,-21.123 -1.47851,-3.5918 -5.00195,-6.0704 -9.125,-6.0704 z"
         style="fill:none;stroke:#464646;stroke-opacity:1;stroke-width:2;stroke-linecap:butt;stroke-linejoin:miter;stroke-miterlimit:4;stroke-dasharray:none"
         id="path204" /><path
         d="m 280.92676,-1079.207 c -2,2.25 -9.65576,6.666 -10.75196,6.8261 -1.05664,0 -1.91406,0.8575 -1.91406,1.9141 0,1.0586 0.85742,1.9141 1.91406,1.9141 0.26416,0 0.5,-0.1075 0.74463,-0.1504 1.25489,-0.2227 3.56739,0.2461 5,1.1523 5.95655,3.7715 12.7837,6.3867 20.22705,7.4082 7.78711,1.0703 13.95801,0.8028 20.96436,-1.4707 7.52734,-2.334 13.42187,-9.0176 14.56836,-17.3594 1.57617,-11.4775 -6.41406,-22.0522 -17.84717,-23.6235 -3.21387,-0.4414 -6.27539,0.1851 -9.25195,0.814 -4.34375,0.9174 -9.71094,1.0146 -13.64453,0.055 -3.50879,-0.8559 -6.17383,-4.8779 -5.67969,-8.4721 0.2832,-2.0645 1.52539,-3.646 2.92285,-4.9776 3.59473,-3.4253 8.55469,-5.3803 14.00098,-4.9248 4.43945,0.3711 8.87207,3.0186 11.28515,5.1089 1.68946,1.4624 2.64991,2.7339 2.64991,5.1387 -0.1875,0.4375 -0.36573,0.8955 -0.36573,1.4482 0,1.1055 0.89502,2 2.00049,2 0.7461,0 1.53516,-0.6567 1.87891,-1.2627 1.94531,-3.852 4.20312,-7.2212 8.07617,-9.0952 2.48437,-1.2021 6.62891,-3.7153 6.62695,-5.6421 0,-1.1054 -0.89453,-1.9619 -2,-2 -0.31054,-0.011 -1.07812,0.095 -1.43554,0.4268 -2.53223,1.4609 -5.33594,2.3125 -8.46875,2.3125 -1.85157,0 -3.63477,-0.2915 -5.30664,-0.8316 -2.26807,-0.7324 -7.16553,-2.5971 -10.94483,-3.1142 -6.98144,-0.9551 -14.31445,0.4975 -20.06445,2.8725 -7.12647,2.9439 -12.11133,8.3179 -13.25733,16.6636 -1.57714,11.4737 6.44483,21.8301 17.8462,23.6201 8.10058,1.2735 14.62402,-3.1054 22.5791,-2.0136 4.73193,0.6504 8.04052,5.0146 7.39209,9.747 -0.38477,2.7832 -2.07813,5.0274 -4.32178,6.3555 -4.47461,2.6504 -9.9375,3.8047 -15.57227,3.0313 -2.55273,-0.3516 -4.5957,-1.0684 -6.76953,-2.1641 -4.47851,-2.252 -7.7959,-6.5215 -9.18359,-11.4316 -0.24805,-0.879 -0.99805,-1.5567 -1.9502,-1.5567 -0.74414,0 -1.48584,0.7617 -1.94726,1.2813 z"
         style="fill:none;stroke:#464646;stroke-opacity:1;stroke-width:2;stroke-linecap:butt;stroke-linejoin:miter;stroke-miterlimit:4;stroke-dasharray:none"
         id="path206" /><path
         d="m 403.66113,-1085.9922 c 0.86914,-0.1753 1.77344,-0.1401 2.32227,0.6021 0.6289,0.852 0.44922,2.0488 -0.40235,2.6767 -0.21093,0.1568 -0.46484,0.211 -0.68554,0.3213 -1.14258,0.5669 -2.72461,2.3179 -3.33789,3.898 -0.69141,1.7812 -1.48438,3.5332 -2.38086,5.2441 -2.16016,4.1289 -5.40039,6.9766 -9.18555,9.5117 -0.86914,0.582 -1.37695,0.9668 -2.34961,1.4883 -3.62305,1.9394 -7.69922,3.041 -12.10937,3.041 -15.23584,0 -27.58741,-12.9043 -27.58741,-28.8193 0,-9.2354 4.15821,-17.4556 10.625,-22.7295 -2.06836,-0.2461 -5.75976,-0.8496 -6.95312,-0.961 -0.26367,-0.014 -0.5293,-0.021 -0.79688,-0.021 -4.56836,0 -8.21289,1.5576 -10.92773,4.8129 -0.32617,0.5279 -0.70117,1.2398 -1.95703,1.2398 -1.10547,0 -2,-0.8945 -2,-2 0,-0.3066 0.16797,-1.1362 0.16797,-1.1362 3.39062,-9.3565 12.35547,-16.043 22.88476,-16.0415 4.24805,4e-4 10.74756,0.2504 16.24951,1.1254 2.37305,0.378 5.69727,0.5425 8.5,0.5425 6.30274,0 11.80469,-1.7724 16.84375,-4.7925 0.35157,-0.309 0.80665,-0.5307 1.31055,-0.5307 1.10547,0 2,0.8945 2,2 0,0.5679 -0.24414,1.0718 -0.61523,1.4438 -4.57227,7.9273 -12.67774,13.6119 -22.15625,14.8296 -1.0625,0.1367 -2.18946,0.1006 -3.25782,0.1323 -2.83593,0.2139 -3.56835,0.252 -6.45898,0.252 -0.97656,0 -2.91797,-0.033 -2.91797,-0.033 -1.47656,5.2173 -2.25,10.5078 -2.25,16.1982 0,6.8096 1.56641,14.8658 3.44141,20.1158 1.61523,4.5234 5.54883,8.0839 10.58398,8.0839 2.67969,0 4.99805,-1.0644 6.93164,-2.5663 2.57032,-1.9981 3.98633,-4.6797 3.98633,-8.1856 0,-2.291 -0.39258,-4.6802 -1.21289,-6.856 -0.32227,-0.8549 -0.12305,-1.8442 0.64258,-2.4111 0.59765,-0.4419 1.64844,-0.2705 2.32617,-0.1265 2.71875,0.5718 7.10352,0.3819 10.72656,-0.3486 z"
         style="fill:none;stroke:#464646;stroke-opacity:1;stroke-width:2;stroke-linecap:butt;stroke-linejoin:miter;stroke-miterlimit:4;stroke-dasharray:none"
         id="path208" /><path
         d="m 229.67725,-903.54102 c -4.14893,-1.18945 -6.34864,-1.16015 -15.64161,-3.36132 -24.35839,-5.76368 -43.86572,-23.76758 -43.86572,-47.25196 0,-24.10156 13.22022,-39.91797 45.25781,-49.9375 9.74805,-3.0488 35.08301,-7.1582 55.58301,-6.6582 62.27783,1.5186 103.55078,12.58203 161.04102,26.83398 57.85156,14.3418 106.30273,19.75 159.375,19.75 18.41211,0 42.14453,-5.44531 54.06836,-10.53125 11.91406,-5.08007 30.86718,-15.75 31.17578,-38.50583 0.21094,-15.4844 -11.7461,-27.9551 -24.91016,-33.2793 -16.83398,-6.8086 -41.95898,-12.4336 -53.20898,-14.0586 -7.85547,-1.1348 -16.19922,-1.9063 -24.23047,-1.9063 -17.93164,0 -35.625,0.8887 -53.09961,2.625 -0.35156,0.1719 -0.61523,0.2285 -0.89063,0.2285 -1.10546,0 -2,-0.8945 -2,-2 0,-1.1054 0.89454,-2 2,-2 0.17969,0 0.35157,0.024 0.51758,0.067 0.24805,0.019 0.41797,0.078 0.66992,0.078 5.52344,0 10,-4.4766 10,-10 0,-2.4414 -1.07031,-4.4629 -2.3125,-6.3516 -3.25,-4.9385 -4.71875,-11.3623 -4.71875,-16.5576 0,-15.9131 12.35157,-28.8174 27.58594,-28.8174 1.9043,0 4.20703,0.2559 5.57031,0.6548 4.66407,1.3647 9.50977,2.0713 14.70899,2.0713 5.15039,0 10.35351,-1.0401 14.7207,-2.1416 1.7793,-0.4487 3.6543,-0.584 5.5586,-0.584 15.23437,0 27.58593,12.9043 27.58593,28.8164 0,4.7412 -1.18945,8.8716 -3.16601,13.1924 -0.98828,2.1621 -1.41016,4.4731 -1.41016,6.6684 0,7.3575 4.41016,12.2071 10.41016,15.4571 4.10547,2.2226 12.72656,3.5234 22.08398,5.4277 22.47461,4.5742 43.86524,23.7695 43.86524,47.2539 0,24.09963 -13.22071,39.91799 -45.25782,49.93752 -9.74804,3.04883 -36.98242,6.92188 -50.48242,6.92188 -54.00097,0 -109.09375,-13.03906 -166.58398,-27.29102 C 371.82715,-993.13281 325.58252,-998.5 272.51074,-998.5 c -18.4126,0 -43.91015,5.59766 -55.83349,10.68359 -11.91407,5.08008 -30.86866,15.75 -31.17774,38.50586 -0.21045,15.48438 11.70801,28.05274 24.91113,33.2793 7.875,3.11719 11.53516,4.66016 21.01661,7.11523 1.50341,0.38868 2.12353,1.83204 1.69531,3.32422 -0.42822,1.49414 -1.95215,2.47852 -3.44531,2.05078 z"
         style="fill:none;stroke:#464646;stroke-opacity:1;stroke-width:2;stroke-linecap:butt;stroke-linejoin:miter;stroke-miterlimit:4;stroke-dasharray:none"
         id="path210" /><path
         d="m 465.42676,-1079.041 c -2,2.25 -9.65528,6.666 -10.75196,6.8262 -1.05664,0 -1.91406,0.8574 -1.91406,1.914 0,1.0586 0.85742,1.9141 1.91406,1.9141 0.26465,0 0.5,-0.1074 0.74512,-0.1504 1.25391,-0.2227 3.56641,0.2461 5,1.1523 5.95606,3.7715 12.78321,6.3867 20.22656,7.4082 7.78711,1.0703 13.95801,0.8028 20.96485,-1.4707 7.52734,-2.334 13.42187,-9.0175 14.56836,-17.3593 1.57617,-11.4776 -6.41406,-22.0528 -17.84766,-23.6236 -3.21387,-0.4414 -6.27539,0.1851 -9.25195,0.814 -4.34375,0.917 -9.71094,1.0146 -13.64453,0.056 -3.50879,-0.8564 -6.17383,-4.8784 -5.67969,-8.4726 0.2832,-2.0645 1.52539,-3.646 2.92285,-4.9775 3.59473,-3.4253 8.55469,-5.3804 14.00098,-4.9249 4.43945,0.3712 8.87207,3.0186 11.28515,5.1089 1.68946,1.4624 2.65039,2.7339 2.65039,5.1387 -0.1875,0.4375 -0.36621,0.8955 -0.36621,1.4482 0,1.1055 0.89551,2 2.00098,2 0.74609,0 1.53516,-0.6567 1.87891,-1.2626 1.94531,-3.8521 4.20312,-7.2212 8.07617,-9.0953 2.48437,-1.2021 6.6289,-3.7153 6.62695,-5.6421 0,-1.1054 -0.89453,-1.9619 -2,-2 -0.31055,-0.011 -1.07812,0.095 -1.43555,0.4268 -2.5332,1.4609 -5.33593,2.3125 -8.46875,2.3125 -1.85156,0 -3.63476,-0.2915 -5.30664,-0.8315 -2.26855,-0.7324 -7.16601,-2.5972 -10.94531,-3.1143 -6.98144,-0.9551 -14.31445,0.4976 -20.06445,2.8726 -7.12695,2.9438 -12.11133,8.3178 -13.25781,16.6635 -1.57618,11.4737 6.44531,21.8301 17.84668,23.6202 8.10058,1.2734 14.62402,-3.1055 22.5791,-2.0137 4.73242,0.6504 8.04101,5.0146 7.39258,9.7471 -0.38477,2.7832 -2.07813,5.0273 -4.32227,6.3554 -4.47461,2.6504 -9.9375,3.8047 -15.57227,3.0313 -2.55273,-0.3516 -4.5957,-1.0684 -6.76953,-2.1641 -4.47851,-2.2519 -7.7959,-6.5215 -9.18359,-11.4316 -0.24805,-0.8789 -0.99805,-1.5567 -1.9502,-1.5567 -0.74414,0 -1.48535,0.7617 -1.94726,1.2813 z"
         style="fill:none;stroke:#464646;stroke-opacity:1;stroke-width:2;stroke-linecap:butt;stroke-linejoin:miter;stroke-miterlimit:4;stroke-dasharray:none"
         id="path212" /><g
         id="g214"
         transform="scale(1,-1)"><text
           transform="matrix(1,0,0,-1,188.44678,1020.6626)"
           id="text216"><tspan
             style="fill:#333333;fill-opacity:1;fill-rule:nonzero;stroke:none;font-family:DustismoRoman;font-variant:normal;font-weight:normal;font-size:28;writing-mode:lr;-inkscape-font-specification:DustismoRoman"
             x="0 17.276 29.82 37.828 52.052 60.06 76.972 91.84 98.868 107.94 122.528 137.312 153.44 162.288 174.636 183.708 198.408 212.492 221.564 238.812 255.22 267.568 276.416 284.424 301.336 310.408 327.544 342.328 354.872 361.9 376.768 393.68 408.884 422.968"
             y="0"
             sodipodi:role="line"
             id="tspan218">Original Fonts by Dustin Norlander</tspan></text>
</g></g></g></svg>